<svg width="160" height="120" viewBox="0 0 160 120" fill="none" xmlns="http://www.w3.org/2000/svg">
<path d="M72.6457 4.56196C75.6208 2.25393 78.0729 0.270472 78.0729 0.180315C78.0729 0.0901573 78.2713 0 78.5237 0C78.7761 0 78.9745 0.108189 78.9745 0.234409C78.9745 0.342598 81.3004 2.2359 84.1313 4.41771C86.9801 6.59951 89.7027 8.70919 90.2256 9.12392C90.7305 9.52061 92.804 11.1434 94.8415 12.7122C96.879 14.2809 99.6016 16.3726 100.882 17.3823C102.162 18.3741 103.64 19.51 104.145 19.9067C104.668 20.3215 107.12 22.2328 114.152 27.6783L114.134 34.0795L109.915 30.7977C107.589 28.9766 104.903 26.8849 103.929 26.1456C102.955 25.4063 101.495 24.2703 100.683 23.6212C99.854 22.9721 98.4296 21.8722 97.51 21.1509C96.5905 20.4477 95.0398 19.2396 94.0842 18.5003C93.1105 17.743 92.209 17.1299 92.1008 17.1299C91.9746 17.1479 90.6944 18.0134 89.27 19.0773C87.8456 20.1411 85.3573 21.9803 83.7706 23.1524C82.1659 24.3425 80.3268 25.6948 78.4336 27.0472L76.955 26.0735C76.1256 25.5325 74.8995 24.7392 74.1963 24.2884C73.4931 23.8376 72.1228 22.954 71.1311 22.3229C70.1394 21.6918 67.8856 20.2674 66.1366 19.1494C64.3696 18.0315 62.819 17.1659 62.7108 17.202C62.5846 17.2381 61.2864 18.1577 59.8439 19.2396C58.3834 20.3034 55.3362 22.5574 53.0824 24.2343C50.8105 25.9292 48.0158 28.0029 46.8798 28.8503C45.7439 29.6978 44.3736 30.6895 42.9131 31.7354L42.9311 27.498L47.2765 24.1622C49.6562 22.3232 52.1079 20.4483 52.7215 19.9791L52.7218 19.9789C53.2816 19.5377 56.4275 17.1012 59.8614 14.4415L60.511 13.9383C64.1893 11.0713 69.6526 6.85195 72.6457 4.56196Z" fill="#147532"/>
<path d="M154.415 101.265C154.721 101.229 155.461 101.102 156.056 101.012C156.651 100.922 157.282 100.832 157.462 100.814C157.751 100.796 157.769 101.211 157.769 107.377C157.769 111.398 157.841 114.103 157.949 114.319C158.057 114.518 158.436 114.752 158.85 114.86C159.283 114.969 159.554 115.131 159.518 115.257C159.463 115.437 158.76 115.491 156.705 115.491C154.415 115.491 153.982 115.455 154.018 115.221C154.054 115.077 154.325 114.914 154.631 114.86C154.92 114.806 155.316 114.644 155.497 114.5C155.767 114.247 155.803 113.724 155.785 108.64C155.785 104.582 155.713 102.924 155.551 102.599C155.389 102.292 155.118 102.13 154.577 102.022C154.072 101.932 153.802 101.788 153.82 101.607C153.838 101.463 154.09 101.319 154.415 101.265Z" fill="#147532"/>
<path d="M2.77673 101.824C2.74067 101.751 2.72263 101.589 2.7587 101.463C2.79476 101.283 3.55205 101.229 6.22059 101.229C9.52021 101.247 9.64642 101.265 9.64642 101.607C9.64642 101.878 9.48414 101.986 8.92519 102.094C8.52852 102.148 8.04169 102.383 7.84335 102.599C7.50077 102.96 7.48274 103.284 7.39258 109.775C7.32046 115.455 7.24834 116.681 7.01394 117.204C6.85166 117.547 6.45499 118.142 6.11241 118.539C5.76982 118.917 5.17481 119.404 4.77813 119.603C4.25524 119.891 3.71432 119.981 2.79476 119.999C1.83913 119.999 1.38836 119.909 0.955627 119.639C0.631074 119.44 0.288491 119.098 0.180307 118.863C0.0901535 118.647 0 118.286 0 118.052C0 117.835 0.126215 117.475 0.27046 117.24C0.450767 116.97 0.721228 116.844 1.1179 116.844C1.44246 116.844 1.85716 116.988 2.03747 117.168C2.21778 117.331 2.36202 117.637 2.34399 117.835C2.34399 118.034 2.25384 118.286 2.16368 118.376C2.01944 118.503 2.0555 118.647 2.2899 118.899C2.54233 119.152 2.7587 119.206 3.24552 119.116C3.58811 119.062 3.98478 118.899 4.12903 118.773C4.25524 118.665 4.50767 118.304 4.66995 118.016C4.92238 117.547 4.95844 116.591 4.95844 110.352C4.95844 103.861 4.92238 103.176 4.63389 102.725C4.41752 102.383 4.111 102.202 3.58811 102.094C3.1734 102.022 2.81279 101.914 2.77673 101.824Z" fill="#80B422"/>
<path fill-rule="evenodd" clip-rule="evenodd" d="M92.0824 21.457C92.2086 21.457 94.751 23.3503 97.708 25.6584C100.683 27.9484 105.515 31.6989 108.454 33.9889C111.393 36.2789 113.882 38.2083 113.972 38.3164C114.062 38.4246 114.116 40.9671 114.044 49.4419L108.995 45.4208C106.218 43.221 103.261 40.8589 102.414 40.1737C101.567 39.5065 100.773 38.9475 100.665 38.9475C100.539 38.9475 99.5291 39.6147 98.4292 40.4261C97.3294 41.2556 94.3182 43.4915 87.0879 48.8648L85.0685 47.4764C83.9506 46.7191 82.4721 45.7093 81.7689 45.2225C81.0657 44.7537 78.2709 42.8423 75.5483 40.9851C72.8256 39.1098 70.5898 37.505 70.5898 37.3788C70.5898 37.2706 72.1585 36.0265 74.0878 34.602C76.0171 33.1775 79.7855 30.3826 82.4721 28.3991C85.1586 26.3977 88.3681 24.0355 89.5942 23.1159C90.8203 22.1963 91.9382 21.457 92.0824 21.457ZM139.125 103.5C139.539 103.5 139.557 103.554 139.647 105.934L140.964 105.97C142.226 106.025 142.262 106.043 142.262 106.475C142.262 106.908 142.226 106.926 139.557 106.926L139.611 110.334C139.647 113.454 139.683 113.778 140.008 114.121C140.206 114.337 140.585 114.517 140.873 114.499C141.144 114.499 141.577 114.409 141.865 114.319C142.136 114.211 142.46 114.175 142.586 114.229C142.749 114.283 142.749 114.427 142.622 114.68C142.532 114.878 142.064 115.221 141.595 115.419C140.946 115.707 140.513 115.78 139.918 115.707C139.467 115.653 138.908 115.527 138.656 115.419C138.403 115.293 138.079 115.022 137.934 114.806C137.718 114.499 137.646 113.58 137.484 107.016L136.853 106.926C136.51 106.872 136.222 106.728 136.222 106.62C136.222 106.493 136.24 106.295 136.276 106.205C136.294 106.115 136.564 106.025 136.853 106.025C137.213 106.025 137.574 105.862 137.844 105.574C138.097 105.321 138.385 104.762 138.493 104.312C138.656 103.626 138.764 103.5 139.125 103.5ZM131.047 105.682C131.353 105.664 131.894 105.772 132.219 105.916C132.525 106.043 132.976 106.349 133.174 106.584C133.391 106.818 133.643 107.305 133.769 107.647C133.896 108.008 133.968 109.451 133.968 111.073C133.968 112.931 134.04 114.013 134.202 114.319C134.31 114.553 134.617 114.806 134.869 114.86C135.122 114.914 135.338 115.076 135.374 115.221C135.41 115.455 135.014 115.491 132.976 115.491C130.903 115.491 130.542 115.455 130.578 115.221C130.614 115.076 130.812 114.932 131.047 114.914C131.263 114.878 131.57 114.68 131.714 114.463C131.93 114.139 131.984 113.472 131.984 111.344C131.966 109.757 131.876 108.387 131.75 108.008C131.588 107.557 131.317 107.269 130.776 106.98C130.109 106.62 129.911 106.602 129.424 106.764C129.099 106.89 128.595 107.197 128.288 107.485C128 107.756 127.639 108.297 127.531 108.675C127.405 109.054 127.296 110.298 127.296 111.488C127.296 112.967 127.368 113.778 127.567 114.229C127.711 114.571 127.982 114.932 128.162 115.04C128.378 115.167 128.036 115.203 126.936 115.203C126.088 115.185 125.349 115.148 125.277 115.112C125.187 115.076 125.241 114.914 125.367 114.77C125.475 114.608 125.638 114.481 125.728 114.499C125.8 114.499 125.818 114.626 125.764 114.77C125.71 114.914 125.764 115.004 125.854 114.95C125.962 114.896 125.998 114.409 125.944 113.778C125.872 112.985 125.908 112.696 126.088 112.696C126.233 112.696 126.215 112.642 126.034 112.534C125.8 112.39 125.8 112.336 126.034 112.047C126.196 111.867 126.215 111.777 126.088 111.849C125.908 111.939 125.854 111.65 125.872 110.587C125.872 109.775 125.962 109.072 126.088 108.928C126.251 108.711 126.251 108.693 126.088 108.783C125.926 108.874 125.836 108.729 125.818 108.279C125.782 107.936 125.818 107.647 125.908 107.647C125.98 107.647 125.836 107.467 125.601 107.251C125.349 107.016 125.205 106.746 125.277 106.638C125.349 106.529 125.782 106.349 126.269 106.241C126.737 106.115 127.152 106.025 127.206 106.025C127.26 106.025 127.314 106.241 127.35 106.511C127.368 106.836 127.495 107.034 127.711 107.052C127.873 107.088 128.234 106.908 128.522 106.656C128.793 106.403 129.334 106.079 129.731 105.934C130.127 105.808 130.722 105.682 131.047 105.682ZM147.671 105.664C148.32 105.664 149.132 105.772 149.474 105.916C149.817 106.061 150.286 106.367 150.502 106.602C150.718 106.818 150.971 107.233 151.079 107.521C151.187 107.792 151.277 109.288 151.277 110.893C151.277 112.48 151.367 113.94 151.457 114.139C151.602 114.427 151.764 114.481 152.359 114.409C152.918 114.337 153.08 114.373 153.08 114.59C153.08 114.734 152.81 115.04 152.503 115.257C152.107 115.527 151.638 115.671 151.151 115.671C150.574 115.671 150.285 115.563 149.384 114.662L148.573 115.112C148.122 115.365 147.365 115.617 146.86 115.671C146.301 115.744 145.688 115.689 145.237 115.545C144.786 115.401 144.389 115.094 144.119 114.68C143.849 114.283 143.704 113.778 143.704 113.327C143.704 112.931 143.849 112.318 144.029 111.975C144.191 111.614 144.642 111.182 145.057 110.947C145.453 110.731 146.193 110.46 146.679 110.37C147.184 110.262 147.96 110.136 149.294 109.991V109.234C149.294 108.801 149.24 108.188 149.168 107.846C149.077 107.503 148.825 107.034 148.573 106.782C148.176 106.403 147.996 106.367 147.22 106.439C146.553 106.511 146.229 106.638 145.994 106.944C145.814 107.197 145.724 107.503 145.796 107.647C145.868 107.792 145.94 108.098 145.976 108.333C146.03 108.603 145.904 108.819 145.579 109.054C145.219 109.288 145.003 109.324 144.642 109.18C144.389 109.072 144.119 108.783 144.029 108.513C143.921 108.152 143.975 107.81 144.209 107.341C144.444 106.836 144.786 106.529 145.525 106.151C146.283 105.772 146.751 105.664 147.671 105.664ZM146.265 111.849C145.976 112.137 145.868 112.444 145.868 113.021C145.868 113.526 145.976 113.886 146.229 114.139C146.427 114.337 146.77 114.499 147.004 114.499C147.22 114.499 147.689 114.409 148.032 114.301C148.374 114.175 148.807 113.958 148.987 113.796C149.24 113.562 149.312 113.237 149.294 112.209V110.893C148.392 110.911 147.797 111.019 147.401 111.164C147.004 111.308 146.499 111.614 146.265 111.849Z" fill="#147532"/>
<path fill-rule="evenodd" clip-rule="evenodd" d="M100.576 43.2931C100.684 43.2751 102.793 44.8619 105.264 46.8273C107.716 48.7747 110.709 51.1368 114.153 53.8235L114.063 58.2412C114.008 60.8738 113.864 63.4884 113.684 64.7325C113.522 65.8685 113.233 67.4012 113.035 68.1224C112.854 68.8257 112.494 69.9256 112.259 70.5567C112.025 71.1698 111.574 72.1975 111.25 72.8467C110.925 73.4958 110.222 74.7039 109.663 75.5514C109.104 76.3989 108.112 77.607 107.463 78.2561C106.652 79.0856 105.804 79.6986 104.669 80.2756C103.316 80.9789 102.739 81.1772 101.153 81.4116C99.9625 81.5919 98.8266 81.6641 98.0873 81.5919C97.4382 81.5378 96.2662 81.3756 95.4729 81.2313C94.6795 81.0871 93.4715 80.7805 92.7683 80.5461C92.0831 80.3117 90.8931 79.8429 90.1538 79.5183C89.4145 79.1938 87.918 78.4364 86.8181 77.8414C85.7363 77.2464 83.825 76.0743 82.5809 75.2268C81.3368 74.3974 79.6059 73.1352 78.7043 72.432C77.8208 71.7287 76.6128 70.737 76.0358 70.2321C75.4768 69.7453 75.0441 69.3125 75.0982 69.2945C75.1523 69.2584 76.0538 69.6731 77.1356 70.2141C78.1995 70.737 79.9665 71.5664 81.0483 72.0353C82.1482 72.5041 84.1316 73.2434 85.4658 73.6942C86.8001 74.1449 88.7113 74.6859 89.703 74.9203C90.6947 75.1547 92.3535 75.4432 93.3993 75.5694C94.5353 75.6956 95.9417 75.7317 96.9153 75.6596C97.889 75.5694 99.1872 75.317 100.161 75.0105C101.243 74.6679 102.09 74.2531 102.685 73.8023C103.19 73.4057 103.857 72.7746 104.182 72.3779C104.506 71.9992 104.921 71.1517 105.137 70.5026C105.318 69.8535 105.48 69.042 105.48 68.6994C105.48 68.3568 105.354 67.5454 105.191 66.8963C105.047 66.2472 104.65 65.1653 104.326 64.4621C103.911 63.5605 103.334 62.7671 102.325 61.6852C101.531 60.8558 100.323 59.7739 99.6199 59.287C98.9348 58.8002 97.7988 58.1691 97.0956 57.8806C96.4105 57.5921 95.1122 57.1593 94.2107 56.8888C93.3272 56.6364 91.6143 56.2938 90.4243 56.1495C89.2342 55.9873 87.2328 55.807 83.6628 55.6266L87.0525 53.1383C88.9097 51.7679 92.6601 48.9911 95.3827 46.9715C98.1053 44.952 100.449 43.2931 100.576 43.2931ZM37.8287 101.246L37.8828 107.377C37.9369 112.372 38.009 113.598 38.2254 114.031C38.3877 114.355 38.7303 114.644 39.758 114.986L38.8565 115.094C38.3697 115.167 37.6484 115.275 37.2698 115.347C36.7289 115.455 36.6027 115.437 36.6027 115.221C36.6207 115.076 36.4945 114.842 36.3322 114.734C36.1158 114.535 35.9896 114.571 35.6651 114.914C35.4307 115.148 34.9258 115.437 34.5291 115.563C34.0603 115.725 33.4473 115.78 32.8162 115.689C32.2032 115.635 31.5721 115.419 31.1574 115.13C30.7787 114.878 30.2739 114.373 30.0214 114.012C29.787 113.634 29.4805 112.84 29.3723 112.245C29.2642 111.65 29.2281 110.767 29.3002 110.262C29.3543 109.775 29.5887 108.964 29.8051 108.477C30.0214 107.99 30.5624 107.251 31.0131 106.836C31.4639 106.421 32.1491 105.988 32.5457 105.844C32.9424 105.718 33.6817 105.61 34.1865 105.592C34.6914 105.574 35.3225 105.7 35.5929 105.844C36.0257 106.079 36.0978 106.079 36.242 105.844C36.3502 105.7 36.4223 105.015 36.4223 104.312C36.4223 103.626 36.3142 102.851 36.1879 102.599C36.0076 102.256 35.7913 102.13 35.2503 102.094C34.8537 102.058 34.4209 101.949 34.3128 101.859C34.1865 101.769 34.1144 101.589 34.1685 101.445C34.2406 101.246 34.6553 101.192 37.8287 101.246ZM32.0048 107.918C31.7344 108.495 31.6622 109 31.6622 110.442C31.6622 111.741 31.7524 112.426 31.9688 112.877C32.131 113.219 32.3654 113.652 32.4917 113.814C32.6179 113.976 32.9785 114.211 33.267 114.319C33.6997 114.499 34.0062 114.481 34.8897 114.211C35.4847 114.049 36.0798 113.778 36.206 113.616C36.3683 113.417 36.4223 112.516 36.4404 110.532C36.4404 108.116 36.3863 107.683 36.1158 107.305C35.9355 107.07 35.629 106.854 35.4307 106.8C35.2323 106.764 34.7455 106.692 34.3488 106.638C33.862 106.584 33.4292 106.656 32.9965 106.872C32.6179 107.07 32.2212 107.467 32.0048 107.918ZM43.0576 101.517C43.274 101.517 43.5805 101.643 43.7248 101.787C43.869 101.931 43.9952 102.184 43.9952 102.328C43.9952 102.472 43.9231 102.761 43.8149 102.959C43.6947 103.2 43.4543 103.32 43.0937 103.32C42.8052 103.32 42.4266 103.176 42.2643 103.013C42.066 102.797 42.0119 102.544 42.102 102.238C42.1741 101.986 42.3184 101.733 42.4446 101.661C42.5528 101.589 42.8232 101.517 43.0576 101.517ZM15.0199 105.574C15.5789 105.628 16.3722 105.826 16.7689 106.025C17.2737 106.277 17.5983 106.602 17.8507 107.161C18.1573 107.81 18.2113 108.315 18.2113 110.893C18.2113 113.183 18.2654 113.958 18.4638 114.229C18.6982 114.553 18.7883 114.571 19.2752 114.373C19.744 114.175 19.8521 114.175 19.9243 114.409C19.9784 114.553 19.9062 114.806 19.798 114.968C19.6718 115.13 19.3473 115.383 19.0768 115.509C18.7883 115.653 18.2835 115.762 17.9409 115.762C17.5081 115.762 17.1475 115.617 16.246 114.77L15.2002 115.275C14.503 115.611 13.872 115.774 13.307 115.762C12.8202 115.762 12.153 115.635 11.8104 115.491C11.3416 115.293 11.0892 115.004 10.8007 114.373C10.5122 113.706 10.4581 113.345 10.5663 112.786C10.6385 112.39 10.9089 111.831 11.1613 111.542C11.4138 111.254 11.9547 110.857 12.3514 110.659C12.748 110.478 13.7397 110.226 16.0477 109.901V108.874C16.0477 108.297 15.9755 107.629 15.8674 107.377C15.7772 107.124 15.3986 106.782 15.0379 106.62C14.461 106.331 14.3347 106.313 13.6496 106.566C12.8923 106.836 12.8923 106.836 12.8923 107.756C12.8923 108.315 12.7841 108.783 12.6218 108.982C12.4776 109.144 12.135 109.288 11.8645 109.27C11.576 109.27 11.2335 109.144 11.0892 109C10.945 108.856 10.8188 108.441 10.8188 108.098C10.8188 107.629 10.981 107.287 11.4138 106.818C11.7564 106.421 12.3694 106.043 12.9824 105.826C13.7217 105.574 14.2446 105.502 15.0199 105.574ZM13.307 111.831C12.9283 112.209 12.8021 112.516 12.8021 113.021C12.8021 113.381 12.8743 113.778 12.9464 113.904C13.0185 114.012 13.2709 114.193 13.5234 114.283C13.7758 114.391 14.2446 114.409 14.6052 114.337C14.9478 114.265 15.4166 114.085 15.633 113.94C15.9214 113.76 16.0477 113.472 16.0837 112.877C16.1198 112.426 16.1198 111.795 16.1198 111.488C16.1018 110.983 16.0296 110.893 15.669 110.911C15.4346 110.929 14.9117 111.019 14.5151 111.127C14.1184 111.236 13.5775 111.56 13.307 111.831ZM27.1365 105.61C27.4431 105.646 27.8578 105.79 28.0922 105.934C28.3085 106.079 28.5429 106.421 28.597 106.71C28.6691 106.998 28.6151 107.377 28.4708 107.647C28.2905 107.936 28.02 108.116 27.6775 108.152C27.3709 108.17 27.0284 108.098 26.9021 107.972C26.7759 107.846 26.6677 107.575 26.6317 107.395C26.6136 107.215 26.4514 106.962 26.2891 106.854C26.0367 106.692 25.8744 106.746 25.4777 107.034C25.2073 107.233 24.8286 107.683 24.6663 108.026C24.3959 108.531 24.3418 109.126 24.3418 111.344C24.3237 113.706 24.3778 114.085 24.6483 114.373C24.8286 114.535 25.3154 114.752 25.7482 114.824C26.1629 114.896 26.5415 115.058 26.5956 115.185C26.6497 115.293 26.5776 115.437 26.4694 115.491C26.3432 115.545 24.9368 115.563 23.3501 115.545C20.97 115.491 20.4652 115.437 20.4652 115.221C20.4652 115.076 20.6996 114.932 21.0241 114.86C21.3126 114.806 21.7093 114.644 21.8896 114.499C22.1601 114.265 22.1961 113.85 22.1781 110.947C22.1781 107.9 22.1601 107.629 21.8175 107.287C21.6191 107.088 21.2585 106.926 21.0061 106.926C20.7537 106.926 20.5012 106.8 20.4291 106.638C20.339 106.457 20.3931 106.295 20.5553 106.187C20.6996 106.097 21.1864 106.025 21.6372 106.025C22.0879 106.025 22.737 105.952 23.0796 105.844C23.5304 105.718 23.7828 105.736 23.9451 105.898C24.0893 106.025 24.1615 106.331 24.1254 106.602C24.1074 106.872 24.0893 107.106 24.1254 107.106C24.1434 107.106 24.468 106.782 24.8466 106.403C25.2433 105.988 25.7482 105.664 26.0547 105.61C26.3612 105.556 26.848 105.556 27.1365 105.61ZM53.5515 105.898C54.0924 105.934 54.7956 106.115 55.1202 106.313C55.4447 106.493 55.8414 106.944 56.0037 107.287C56.2381 107.774 56.3282 108.693 56.4184 111.164C56.4725 112.949 56.5987 114.517 56.6708 114.644C56.7429 114.752 56.9773 114.932 57.2117 115.022C57.4822 115.148 57.0314 115.203 55.625 115.203C54.2186 115.203 53.7679 115.148 54.0564 115.022C54.2727 114.932 54.5793 114.571 54.7235 114.229C54.9038 113.796 54.994 112.985 54.994 111.668C54.994 110.587 54.9218 109.27 54.8137 108.729C54.6874 108.026 54.4711 107.575 54.0924 107.197C53.6777 106.782 53.3892 106.656 52.8663 106.656C52.5057 106.656 51.8746 106.836 51.478 107.034C51.0092 107.269 50.6305 107.647 50.3961 108.116C50.0896 108.729 50.0355 109.18 50.0355 114.355L51.0272 115.221L49.0979 115.203C47.7817 115.203 47.2948 115.148 47.5833 115.04C47.8177 114.95 48.1243 114.698 48.2685 114.463C48.4488 114.157 48.5029 113.255 48.5029 110.983C48.5029 108.874 48.4308 107.774 48.2685 107.467C48.1423 107.215 47.8358 106.926 47.6014 106.8C47.1686 106.602 47.2047 106.584 48.1423 106.385C48.6832 106.277 49.3143 106.151 49.5487 106.115C49.8732 106.043 49.9454 106.115 49.9995 106.511C50.0175 106.836 50.1437 107.034 50.3601 107.052C50.5223 107.088 50.8289 106.944 51.0272 106.746C51.2255 106.547 51.6583 106.259 51.9828 106.115C52.3434 105.934 52.9204 105.862 53.5515 105.898ZM43.6887 106.043C43.9772 106.025 43.9952 106.331 43.9952 110.046C43.9952 113.309 44.0493 114.121 44.2657 114.463C44.4099 114.68 44.7165 114.932 44.9509 115.022C45.2213 115.148 44.6984 115.203 43.1839 115.203C41.1464 115.203 41.0562 115.185 41.6152 114.95C41.9397 114.788 42.2823 114.463 42.3905 114.193C42.4987 113.886 42.5528 112.552 42.5167 110.803C42.4807 108.693 42.3905 107.774 42.1922 107.395C42.0299 107.07 41.6693 106.782 40.6596 106.421L41.4709 106.385C41.9217 106.367 42.5347 106.277 42.8232 106.205C43.1298 106.133 43.5084 106.061 43.6887 106.043Z" fill="#80B422"/>
<path fill-rule="evenodd" clip-rule="evenodd" d="M81.7511 100.832C82.1297 100.886 82.1297 100.94 82.2199 107.521C82.292 113.147 82.3461 114.175 82.5805 114.319C82.7247 114.409 83.0673 114.499 83.3558 114.499C83.7164 114.499 83.8426 114.59 83.8426 114.86C83.8426 115.167 83.6623 115.239 82.8149 115.383C82.2379 115.455 81.4626 115.509 81.102 115.473C80.7053 115.437 80.4168 115.311 80.4168 115.167C80.4348 115.058 80.3266 114.842 80.2004 114.716C80.0201 114.536 79.8038 114.59 79.1546 114.95C78.5416 115.275 78.0728 115.401 77.2614 115.401C76.4681 115.401 75.9632 115.293 75.3682 114.986C74.7371 114.662 74.4486 114.337 74.052 113.58C73.6192 112.732 73.5471 112.408 73.5651 111.074C73.5832 110.226 73.6733 109.252 73.7995 108.91C73.9258 108.549 74.2323 107.972 74.5208 107.593C74.7912 107.233 75.3862 106.71 75.8731 106.421C76.6484 105.971 76.8828 105.935 78.4334 105.953C79.4972 105.971 80.2004 105.898 80.2726 105.772C80.3447 105.664 80.4168 105.051 80.4168 104.402C80.4168 103.645 80.3086 103.013 80.0922 102.599C79.8578 102.13 79.6234 101.932 78.3433 101.589L79.7857 101.391C80.5791 101.282 81.2642 101.084 81.3003 100.976C81.3364 100.868 81.5347 100.796 81.7511 100.832ZM76.1616 107.143C75.819 107.521 75.5305 108.08 75.4043 108.675C75.2781 109.198 75.1879 110.01 75.1879 110.478C75.1879 110.965 75.3141 111.795 75.4764 112.336C75.6387 112.877 75.9632 113.598 76.1976 113.904C76.4681 114.283 76.8467 114.536 77.2254 114.608C77.5319 114.662 78.1269 114.662 78.5236 114.59C78.9924 114.499 79.4431 114.247 79.8398 113.85L80.4168 113.237C80.4348 107.9 80.3988 107.702 80.0201 107.215C79.7857 106.926 79.4071 106.62 79.1546 106.53C78.9022 106.439 78.5416 106.331 78.3433 106.295C78.1449 106.259 77.6942 106.313 77.3516 106.403C77.009 106.475 76.4681 106.818 76.1616 107.143ZM109.554 101.246L110.618 101.787C111.448 102.22 111.754 102.491 112.097 103.14C112.385 103.699 112.511 104.258 112.511 104.889C112.511 105.412 112.403 106.115 112.277 106.421C112.133 106.746 111.682 107.323 111.285 107.684C110.835 108.098 110.149 108.477 109.59 108.639C109.068 108.802 108.094 108.982 106.201 109.18V111.38C106.201 112.606 106.291 113.76 106.381 113.959C106.471 114.157 106.85 114.445 107.192 114.59C107.535 114.734 108.022 114.86 108.274 114.86C108.599 114.86 108.725 114.95 108.725 115.221C108.725 115.563 108.617 115.581 105.173 115.527C102.18 115.491 101.603 115.455 101.603 115.221C101.603 115.076 101.891 114.914 102.324 114.806C102.721 114.734 103.19 114.518 103.37 114.355C103.676 114.067 103.694 113.67 103.568 102.797L103.117 102.418C102.883 102.22 102.522 102.04 102.324 102.04C102.126 102.058 101.837 101.986 101.693 101.896C101.549 101.805 101.477 101.625 101.531 101.481C101.621 101.3 102.468 101.246 109.554 101.246ZM106.129 102.4L106.201 108.188C107.607 108.188 108.346 108.044 108.743 107.864C109.212 107.684 109.59 107.359 109.771 107.016C109.915 106.71 110.077 106.025 110.113 105.484C110.149 104.943 110.077 104.131 109.951 103.699C109.825 103.266 109.518 102.761 109.266 102.581C109.013 102.4 108.418 102.202 107.914 102.166C107.427 102.112 106.814 102.148 106.579 102.238L106.129 102.4ZM89.6846 105.646C90.3878 105.646 91.3254 105.772 91.7581 105.917C92.281 106.079 92.858 106.475 93.3448 106.998C93.8857 107.575 94.1922 108.134 94.4086 108.856C94.607 109.595 94.661 110.226 94.5889 111.055C94.5168 111.741 94.2824 112.642 94.0119 113.183C93.7235 113.796 93.2907 114.319 92.8039 114.68C92.3711 114.986 91.5958 115.365 91.0369 115.509C90.3697 115.708 89.7206 115.762 89.0535 115.69C88.5126 115.617 87.7012 115.401 87.2685 115.167C86.8177 114.95 86.2227 114.427 85.9522 114.031C85.6637 113.634 85.3211 112.913 85.1769 112.408C85.0327 111.921 84.9064 111.074 84.9064 110.515C84.9064 109.974 85.0327 109.162 85.1769 108.711C85.3211 108.279 85.6818 107.63 85.9522 107.269C86.2407 106.926 86.9078 106.421 87.4488 106.151C88.2421 105.736 88.6749 105.646 89.6846 105.646ZM88.188 107.071C87.9176 107.341 87.593 107.918 87.4668 108.369C87.3045 108.874 87.2504 109.811 87.2865 110.965C87.3406 112.318 87.4488 112.949 87.7012 113.49C87.8995 113.886 88.3142 114.355 88.6027 114.536C89.0174 114.788 89.3781 114.842 90.0452 114.788C90.8025 114.716 91.0369 114.608 91.4516 114.103C91.722 113.778 92.0105 113.147 92.1187 112.732C92.2269 112.318 92.299 111.29 92.299 110.478C92.299 109.559 92.1728 108.657 91.9745 108.098C91.8122 107.611 91.4696 107.071 91.2172 106.89C90.9828 106.692 90.496 106.512 90.1353 106.475C89.7928 106.439 89.324 106.439 89.0896 106.494C88.8552 106.548 88.4405 106.8 88.188 107.071ZM118.335 105.7C119.489 105.736 119.976 105.808 120.138 106.007C120.247 106.169 120.643 106.512 121.022 106.782C121.383 107.052 121.851 107.575 122.032 107.954C122.212 108.333 122.41 109.036 122.482 109.523C122.536 110.028 122.5 110.965 122.41 111.596C122.302 112.318 122.05 113.057 121.761 113.49C121.509 113.886 120.842 114.536 120.283 114.932C119.291 115.617 119.201 115.635 117.812 115.654C116.695 115.654 116.208 115.563 115.649 115.257C115.252 115.058 114.711 114.662 114.441 114.373C114.188 114.085 113.81 113.49 113.611 113.039C113.413 112.606 113.197 111.831 113.124 111.326C113.07 110.839 113.088 109.992 113.197 109.433C113.305 108.892 113.611 108.098 113.9 107.684C114.17 107.269 114.675 106.728 115.018 106.494C115.378 106.259 115.901 105.971 116.19 105.862C116.496 105.754 117.452 105.682 118.335 105.7ZM116.316 107.161C116.1 107.377 115.793 107.954 115.649 108.441C115.505 108.946 115.378 109.865 115.378 110.478C115.378 111.092 115.468 112.029 115.595 112.552C115.739 113.219 115.973 113.688 116.442 114.175C117.019 114.752 117.199 114.842 117.957 114.842C118.606 114.842 118.93 114.752 119.345 114.391C119.652 114.157 119.976 113.941 120.066 113.941C120.174 113.941 120.373 113.526 120.517 113.003C120.679 112.48 120.788 111.38 120.788 110.515C120.788 109.361 120.679 108.747 120.373 107.99C120.156 107.449 119.922 107.052 119.868 107.089C119.796 107.143 119.597 107.052 119.417 106.872C119.237 106.692 118.75 106.512 118.353 106.457C117.957 106.421 117.434 106.457 117.181 106.566C116.947 106.674 116.55 106.944 116.316 107.161ZM62.7828 105.844C63.1434 105.844 63.7925 105.971 64.2252 106.133C64.7481 106.349 65.0727 106.367 65.253 106.259C65.4874 106.097 65.5234 106.241 65.5234 107.305C65.5234 107.99 65.5054 108.531 65.4874 108.531C65.4513 108.531 65.289 108.188 65.1087 107.774C64.9284 107.359 64.5859 106.836 64.3695 106.638C64.063 106.367 63.7023 106.277 62.8729 106.277C61.8993 106.277 61.755 106.331 61.2682 106.872C60.9797 107.197 60.7453 107.593 60.7453 107.774C60.7453 107.954 60.8896 108.297 61.0699 108.531C61.2682 108.784 61.8993 109.18 62.4763 109.415C63.0713 109.667 63.9908 110.082 64.5318 110.37C65.1087 110.659 65.6677 111.11 65.848 111.416C66.0283 111.759 66.1545 112.336 66.1545 112.913C66.1545 113.526 66.0463 114.013 65.848 114.301C65.6677 114.536 65.1989 114.878 64.8022 115.058C64.3695 115.257 63.6483 115.383 62.9631 115.383C62.332 115.383 61.4665 115.311 61.0158 115.203C60.4749 115.083 60.1142 115.083 59.9339 115.203C59.6995 115.365 59.6635 115.203 59.6274 114.031C59.5914 113.291 59.6454 112.678 59.7176 112.678C59.7897 112.678 59.8798 112.913 59.9339 113.183C59.988 113.454 60.3486 113.977 60.7453 114.355C61.1961 114.788 61.719 115.076 62.1517 115.149C62.5123 115.203 63.1254 115.167 63.504 115.058C63.8827 114.932 64.3154 114.644 64.4957 114.355C64.658 114.103 64.8022 113.616 64.8022 113.291C64.8022 112.949 64.658 112.552 64.4416 112.336C64.2433 112.119 63.1614 111.488 62.0075 110.929C60.0601 109.956 59.9339 109.847 59.6995 109.162C59.5012 108.567 59.5012 108.315 59.6995 107.648C59.8257 107.215 60.1503 106.71 60.3847 106.512C60.6371 106.331 61.124 106.115 61.4665 106.025C61.8272 105.935 62.4041 105.862 62.7828 105.844Z" fill="#3D892C"/>
<path d="M53.6679 28.0784C56.1128 26.2626 59.167 23.9944 60.4754 23.0444C61.7736 22.0888 62.8915 21.2954 62.9816 21.2773C63.0537 21.2773 64.1356 21.9445 65.4158 22.774C66.6779 23.6034 68.2105 24.5951 68.8236 24.9918C69.4546 25.3705 71.1676 26.4704 72.6641 27.408C74.1426 28.3457 75.3507 29.1751 75.3687 29.2653C75.3687 29.3374 74.1787 30.257 72.7362 31.3389C71.2938 32.4028 67.9401 34.8731 65.2896 36.8205C62.6571 38.7859 59.0329 41.4726 57.2479 42.7889C55.4851 44.1066 52.7728 46.1101 51.1773 47.2886L51.1174 47.3328C49.5307 48.5048 47.1326 50.29 45.7984 51.2817C44.4641 52.2554 43.2561 53.157 43.1298 53.2651C42.9315 53.4274 42.8954 51.8587 42.9135 36.0812L46.0328 33.7551C47.7277 32.4929 51.1535 29.9505 53.6237 28.1113L53.6679 28.0784Z" fill="#35AB4D"/>
<path d="M57.1577 47.1344C58.7985 45.9263 61.7195 43.7445 63.6488 42.32C65.578 40.8775 67.2549 39.6875 67.3451 39.6694C67.4532 39.6694 69.0219 40.6792 70.861 41.9414C72.7002 43.2036 74.8458 44.6822 75.6392 45.2231C76.4325 45.7821 78.6323 47.2787 80.5075 48.5589C82.4007 49.8572 83.9693 50.9391 84.0234 50.9932C84.0775 51.0292 83.9153 51.2096 83.6809 51.3718C83.4284 51.5341 82.0581 52.5439 77.9832 55.5732L76.2702 55.4469C75.3326 55.3748 73.7459 55.2125 72.7543 55.0683C71.7626 54.924 70.1398 54.5995 69.1481 54.3651C67.922 54.0585 66.5878 53.5356 65.0011 52.7422C63.6488 52.0751 62.1342 51.1555 61.449 50.5785C60.7639 50.0375 60.0967 49.5867 59.9525 49.5867C59.8082 49.5867 59.6279 49.731 59.5738 49.8933C59.5197 50.0736 59.3935 51.1915 59.2853 52.3816C59.1772 53.5717 59.1411 55.8797 59.2132 57.5206C59.2673 59.1614 59.4837 61.6678 59.682 63.1103C59.8984 64.5528 60.241 66.4101 60.4393 67.2576C60.6376 68.105 61.1605 69.8901 61.5933 71.2245C62.026 72.5588 62.9095 74.7226 63.5406 76.0028C64.1717 77.283 65.2535 79.1222 65.9387 80.0959C66.6058 81.0516 67.7237 82.4581 68.4269 83.2334C69.1301 84.0088 70.3742 85.2169 71.2217 85.9201C72.0691 86.6233 73.2411 87.5249 73.8361 87.9396C74.4311 88.3363 75.7654 89.1297 76.8112 89.6706C77.8569 90.2296 79.5158 90.9689 80.5075 91.3295C81.4991 91.6902 82.9596 92.177 85.1954 92.8081L83.753 93.0425C82.9596 93.1687 81.0123 93.313 79.4256 93.3491C77.298 93.4212 75.8916 93.3671 74.1066 93.1327C72.7723 92.9704 70.6086 92.5557 69.3284 92.2311C68.0483 91.9065 66.2632 91.3295 65.3617 90.9689C64.4782 90.6083 63.0898 89.9772 62.2965 89.5805C61.5031 89.1658 60.2049 88.4445 59.4116 87.9396C58.6182 87.4528 57.3561 86.5873 56.6168 86.0283C55.8775 85.4693 54.5974 84.3694 53.7679 83.576C52.9205 82.7826 51.6584 81.3942 50.9371 80.5107C50.2159 79.6271 49.1881 78.2026 48.6292 77.3552C48.0883 76.5077 47.331 75.2094 46.9343 74.4701C46.5196 73.7308 45.8705 72.3424 45.4738 71.4048C45.0771 70.4672 44.5362 69.0066 44.3018 68.1591C44.0494 67.3116 43.6708 65.7429 43.4544 64.643C43.238 63.5431 43.0217 61.5596 42.8594 57.791L45.9967 55.4289C47.7277 54.1307 50.27 52.2373 51.6584 51.2096C53.0467 50.1818 55.5169 48.3606 57.1577 47.1344Z" fill="#35AB4D"/>
</svg>
